# xmcd
#
# Track frame offsets: 
#        150
#        15600
#        26625
#        35625
#        51450
#        58125
#        72525
#        94350
#        111825
#        130050
#        137925
#        152925
#
# Disc length: 2255 seconds
#
# Revision: 3
# Processed by: cddbd v1.5.2PL0 Copyright (c) Steve Scherf et al.
# Submitted via: ExactAudioCopyFreeDBPlugin 1.0
#
DISCID=b708cd0c
DTITLE=Дочь Монро и Кеннеди - Подмосковный Петербург
DYEAR=2002
DGENRE=Country
TTITLE0=Рокенролы
TTITLE1=Всё, как всегда
TTITLE2=Сегодня
TTITLE3=Бытовая I
TTITLE4=Прости меня
TTITLE5=Это лучшая песня
TTITLE6=Подмосковный Петербург
TTITLE7=Бытовая II
TTITLE8=Это пройдёт
TTITLE9=Мне поздно захотелось
TTITLE10=Аут
TTITLE11=Подобие блюза
EXTD=YEAR: 2002
EXTT0=
EXTT1=
EXTT2=
EXTT3=
EXTT4=
EXTT5=
EXTT6=
EXTT7=
EXTT8=
EXTT9=
EXTT10=
EXTT11=
PLAYORDER=
